<svg width="61" height="40" viewBox="0 0 61 40" fill="none" xmlns="http://www.w3.org/2000/svg">
<path d="M19.4751 28.5412C13.0288 29.7129 8.40377 29.4655 7.72882 27.5851C6.66484 24.6207 15.8199 18.7204 28.1773 14.4066C40.5347 10.0927 51.4148 8.99876 52.4788 11.9632C53.1579 13.8552 49.6742 16.9431 43.852 20.0512" stroke="#364D9D" stroke-width="2"/>
<ellipse cx="29.7392" cy="19.2873" rx="14.4337" ry="14.2347" fill="#364D9D"/>
<path fill-rule="evenodd" clip-rule="evenodd" d="M23.0034 14.945C23.0034 14.3733 23.4734 13.9098 24.0531 13.9098H35.6001C36.1798 13.9098 36.6498 14.3733 36.6498 14.945V24.2623C36.6498 24.834 36.1798 25.2975 35.6001 25.2975H24.0531C23.4734 25.2975 23.0034 24.834 23.0034 24.2623V14.945ZM35.6001 14.945H24.0531V24.2623H35.6001V14.945Z" fill="#EDECEE"/>
<path fill-rule="evenodd" clip-rule="evenodd" d="M23.0034 16.498C23.0034 16.2121 23.2384 15.9803 23.5283 15.9803H36.1249C36.4148 15.9803 36.6498 16.2121 36.6498 16.498C36.6498 16.7838 36.4148 17.0156 36.1249 17.0156H23.5283C23.2384 17.0156 23.0034 16.7838 23.0034 16.498Z" fill="#EDECEE"/>
<path fill-rule="evenodd" clip-rule="evenodd" d="M27.2023 18.0508C27.4922 18.0508 27.7272 18.2825 27.7272 18.5684C27.7272 19.1175 27.9483 19.6442 28.3421 20.0325C28.7358 20.4208 29.2698 20.6389 29.8266 20.6389C30.3834 20.6389 30.9174 20.4208 31.3111 20.0325C31.7048 19.6442 31.926 19.1175 31.926 18.5684C31.926 18.2825 32.161 18.0508 32.4509 18.0508C32.7408 18.0508 32.9758 18.2825 32.9758 18.5684C32.9758 19.3921 32.644 20.1821 32.0534 20.7645C31.4628 21.3469 30.6618 21.6742 29.8266 21.6742C28.9914 21.6742 28.1904 21.3469 27.5998 20.7645C27.0092 20.1821 26.6774 19.3921 26.6774 18.5684C26.6774 18.2825 26.9124 18.0508 27.2023 18.0508Z" fill="#EDECEE"/>
<path d="M19.4752 28.5413C20.5628 28.3436 21.7022 28.1055 22.8833 27.8281M43.852 20.0512C42.7549 20.6369 41.5748 21.2233 40.3238 21.8026" stroke="#F7F7F8" stroke-width="2"/>
</svg>
